<?xml version="1.0" encoding="UTF-8"?>
<svg id="Layer_1" data-name="Layer 1" xmlns="http://www.w3.org/2000/svg" version="1.1" viewBox="0 0 1869.83 240.82">
  <defs>
    <style>
      .cls-1 {
        fill: #fff;
        stroke-width: 0px;
      }
    </style>
  </defs>
  <path class="cls-1" d="M129.7,150.28c-2.67-8.26-7.59-14.75-14.76-19.49-5.09-3.36-12.01-5.71-20.77-7.05v-2.06c14.45-.36,25.32-4.55,32.61-12.57,7.29-8.02,10.93-19.73,10.93-35.16v-6.74c0-20.4-5.59-36.04-16.76-46.91-11.17-10.87-28.9-16.3-53.19-16.3H0v232.8h56.29v-76.69h6.19c4.01,0,7.29.79,9.84,2.37,2.55,1.58,4.46,3.92,5.74,7.01,1.28,3.1,1.97,7.01,2.1,11.75l2.37,55.56h56.83l-4.37-56.83c-.85-11.54-2.61-21.43-5.28-29.69ZM80.7,89.08c0,8.87-1.28,15.12-3.83,18.76s-6.86,5.46-12.93,5.46h-8.02v-60.66h8.02c6.44,0,10.84,1.82,13.21,5.46s3.55,9.96,3.55,18.94v12.02ZM146.86,4.01h58.29v232.8h-58.29V4.01ZM327.69,142.36c2.49,7.35,3.73,16.3,3.73,26.87v4.55c0,21.5-5.59,38.04-16.76,49.64-11.17,11.6-28.05,17.4-50.64,17.4-6.92,0-13.3-.55-19.13-1.64-5.83-1.09-11.08-2.52-15.76-4.28-4.68-1.76-8.77-3.67-12.3-5.74l-3.46-51.55c4.74,2.55,10.26,5.01,16.58,7.38,6.31,2.37,13.3,3.55,20.95,3.55s13.05-1.52,16.58-4.55c3.52-3.03,5.28-7.35,5.28-12.93v-3.1c0-4.37-.85-8.11-2.55-11.2-1.7-3.1-4.19-6.19-7.47-9.29-3.28-3.1-7.35-6.77-12.2-11.02-7.77-6.92-14.54-13.75-20.31-20.49-5.77-6.74-10.23-14.09-13.39-22.04-3.16-7.95-4.74-17.09-4.74-27.42v-4.19c0-19.55,5.43-34.82,16.3-45.81C239.28,5.5,254.74,0,274.77,0c10.08,0,18.94,1.34,26.6,4.01,7.65,2.67,13.96,5.77,18.94,9.29l3.28,49.37c-4.13-2.79-8.96-5.34-14.48-7.65-5.53-2.31-11.87-3.46-19.04-3.46-4.25,0-7.83.58-10.75,1.73-2.91,1.16-5.07,2.89-6.47,5.19-1.4,2.31-2.1,5.16-2.1,8.56v.91c0,3.89.91,7.47,2.73,10.75,1.82,3.28,4.67,6.77,8.56,10.47,3.89,3.71,8.8,8.17,14.75,13.39,7.89,6.8,14.39,13.3,19.49,19.49,5.1,6.19,8.89,12.96,11.39,20.31ZM424.44,4.01h58.29v232.8h-58.29v-93.08h-27.51v93.08h-58.29V4.01h58.29v89.44h27.51V4.01ZM519.24,4.01l-30.6,232.8h56.47l4.56-51.55h28.59l4.56,51.55h56.47l-30.6-232.8h-89.44ZM553.51,141.72l8.53-96.55h3.83l8.53,96.55h-20.9ZM740.27,110.57v-1.64c14.81-1.21,25.38-5.56,31.7-13.02,6.31-7.47,9.47-17.88,9.47-31.24v-5.1c0-17.97-5.65-31.73-16.94-41.26-11.29-9.53-29.27-14.3-53.92-14.3h-65.4v232.8h69.77c24.17,0,41.65-5.28,52.46-15.85,10.81-10.57,16.21-27.08,16.21-49.55v-7.47c0-15.3-2.98-27.42-8.93-36.34-5.95-8.93-17.43-14.6-34.43-17.03ZM699.83,51.19h9.11c6.19,0,10.63,1.67,13.3,5.01,2.67,3.34,4.01,8.72,4.01,16.12v4.01c0,7.41-1.34,12.78-4.01,16.12-2.67,3.34-7.1,5.01-13.3,5.01h-9.11v-46.27ZM727.7,168.5c0,7.17-1.34,12.42-4.01,15.76-2.67,3.34-7.41,5.01-14.21,5.01h-9.65v-48.82h9.65c6.8,0,11.54,1.67,14.21,5.01,2.67,3.34,4.01,8.59,4.01,15.76v7.29ZM876.75,4.01h58.29v232.8h-58.29v-93.08h-27.51v93.08h-58.29V4.01h58.29v89.44h27.51V4.01ZM1136.15,76.33c0-23.8-5.59-41.81-16.76-54.01-11.17-12.21-29.39-18.31-54.65-18.31h-65.94v232.8h56.29v-62.12h10.38c24.89,0,42.9-5.83,54.01-17.49,11.11-11.66,16.67-29.87,16.67-54.65v-26.23ZM1079.5,101.83c0,8.87-1.16,15.12-3.46,18.76-2.31,3.64-6.74,5.46-13.3,5.46h-8.01V52.65h8.01c6.56,0,10.99,1.82,13.3,5.46,2.31,3.64,3.46,9.96,3.46,18.94v24.77ZM1161.4,4.01l-30.6,232.8h56.47l4.56-51.55h28.59l4.56,51.55h56.47l-30.6-232.8h-89.44ZM1195.67,141.72l8.54-96.55h3.83l8.54,96.55h-20.9ZM1389.17,3.64h51.73v233.17h-75.42l-28.05-168.68h-1.82l3.83,116.77v51.92h-52.1V3.64h76.14l27.69,165.95h1.82l-3.83-114.03V3.64ZM1522.59,4.01h-68.31v232.8h68.31c25.75,0,44.33-6.22,55.74-18.67,11.41-12.45,17.12-30.57,17.12-54.38v-86.71c0-23.68-5.8-41.77-17.4-54.28-11.6-12.51-30.09-18.76-55.47-18.76ZM1538.62,163.58c0,8.38-1.49,14.39-4.46,18.03-2.98,3.64-7.86,5.46-14.66,5.46h-8.74V53.37h8.74c6.8,0,11.69,1.82,14.66,5.46,2.97,3.64,4.46,9.65,4.46,18.03v86.71ZM1662.27,4.01h53.92v50.28h-53.92v39.89h51.92v49h-51.92v42.63h53.92v51.01h-110.21V4.01h56.29ZM1869.83,4.01l-47.36,172v60.8h-55.74v-60.76l-47.91-172.05h57.75l10.57,63.39,6.01,41.53h2.92l6.01-41.53,10.02-63.39h57.75Z"/>
</svg>