<svg width="512" height="512" viewBox="0 0 512 512" fill="none" xmlns="http://www.w3.org/2000/svg">
<rect width="512" height="512" rx="48" fill="#21D658"/>
<path d="M45 122.051C45 114.305 51.2847 108 59.0147 108H448.808C456.521 108 462.806 114.305 462.806 122.051C462.806 129.796 456.53 136.093 448.808 136.093H59.0147C51.2847 136.093 45 129.796 45 122.051ZM463.764 158.841V158.791C465.498 151.426 461.105 143.954 453.854 142.018C450.261 140.984 446.471 141.43 443.184 143.284C439.889 145.154 437.543 148.183 436.585 151.791C411.736 242.839 360.442 296.46 321.784 325.405C264.701 368.22 196.23 385.588 143.095 370.743C125.752 365.878 84.3022 349.361 73.9956 301.11C72.3522 293.704 64.8782 288.905 57.2969 290.394C49.7486 292.066 44.9504 299.563 46.5939 307.093C60.1957 370.396 113.389 391.654 135.612 397.852C150.164 401.931 166.012 404 182.727 404C234.285 404 291.104 383.52 338.598 347.814C380.741 316.328 436.651 258.048 463.657 159.23L463.764 158.841ZM55.0341 285.305L55.1332 285.339C62.5493 287.407 70.3288 283.121 72.4595 275.765C75.5317 265.222 88.9931 229.773 133.027 216.169C207.387 193.173 273.959 215.085 336.534 283.171C339.168 286.05 342.917 287.697 346.824 287.697C350.375 287.697 353.753 286.381 356.304 283.998C359.088 281.441 360.69 277.957 360.822 274.201C360.97 270.452 359.657 266.886 357.122 264.147C287.453 188.341 209.278 163.168 124.777 189.334C67.364 207.05 49.6413 253.919 45.5864 267.845C43.3813 275.243 47.6179 283.071 55.0341 285.305ZM463.203 379.258L404.807 317.064C399.521 311.462 390.635 311.197 385.003 316.477C382.269 319.05 380.7 322.534 380.601 326.274C380.494 330.023 381.848 333.597 384.416 336.328L442.788 398.506C445.43 401.302 449.155 402.908 453.003 402.908C456.62 402.908 460.031 401.551 462.583 399.101C465.317 396.528 466.886 393.044 466.993 389.296C467.109 385.539 465.754 381.972 463.186 379.258H463.203Z" fill="black"/>
</svg>
