<?xml version="1.0" encoding="UTF-8"?>
<svg id="Layer_1" data-name="Layer 1" xmlns="http://www.w3.org/2000/svg" version="1.1" viewBox="0 0 512 512">
  <defs>
    <style>
      .cls-1 {
        fill: #21d658;
        stroke-width: 0px;
      }
    </style>
  </defs>
  <path class="cls-1" d="M.5,94.13c0-9.36,7.61-16.98,16.97-16.98h471.99c9.34,0,16.95,7.62,16.95,16.98s-7.6,16.97-16.95,16.97H17.47c-9.36,0-16.97-7.61-16.97-16.97ZM507.57,138.59v-.06c2.1-8.9-3.22-17.93-12-20.27-4.35-1.25-8.94-.71-12.92,1.53-3.99,2.26-6.83,5.92-7.99,10.28-30.09,110.03-92.2,174.83-139.01,209.81-69.12,51.74-152.03,72.73-216.37,54.79-21-5.88-71.19-25.84-83.67-84.15-1.99-8.95-11.04-14.75-20.22-12.95-9.14,2.02-14.95,11.08-12.96,20.18,16.47,76.5,80.88,102.19,107.79,109.68,17.62,4.93,36.81,7.43,57.05,7.43,62.43,0,131.23-24.75,188.74-67.9,51.03-38.05,118.73-108.48,151.43-227.9l.13-.47ZM12.65,291.42l.12.04c8.98,2.5,18.4-2.68,20.98-11.57,3.72-12.74,20.02-55.58,73.34-72.02,90.04-27.79,170.65-1.31,246.42,80.97,3.19,3.48,7.73,5.47,12.46,5.47,4.3,0,8.39-1.59,11.48-4.47,3.37-3.09,5.31-7.3,5.47-11.84.18-4.53-1.41-8.84-4.48-12.15-84.36-91.61-179.02-122.03-281.34-90.41C27.58,196.85,6.12,253.49,1.21,270.32c-2.67,8.94,2.46,18.4,11.44,21.1ZM506.89,404.96l-70.71-75.16c-6.4-6.77-17.16-7.09-23.98-.71-3.31,3.11-5.21,7.32-5.33,11.84-.13,4.53,1.51,8.85,4.62,12.15l70.68,75.14c3.2,3.38,7.71,5.32,12.37,5.32,4.38,0,8.51-1.64,11.6-4.6,3.31-3.11,5.21-7.32,5.34-11.85.14-4.54-1.5-8.85-4.61-12.13Z"/>
</svg>