<svg width="512" height="512" viewBox="0 0 512 512" fill="none" xmlns="http://www.w3.org/2000/svg">
<rect width="512" height="512" rx="256" fill="#21D658"/>
<path d="M92 151.918C92 145.899 96.8848 141 102.893 141H405.86C411.855 141 416.74 145.899 416.74 151.918C416.74 157.936 411.862 162.829 405.86 162.829H102.893C96.8848 162.829 92 157.936 92 151.918ZM417.485 180.505V180.466C418.833 174.744 415.418 168.937 409.782 167.433C406.99 166.629 404.044 166.976 401.489 168.417C398.928 169.87 397.105 172.223 396.36 175.026C377.046 245.773 337.178 287.438 307.131 309.93C262.763 343.198 209.544 356.694 168.244 345.159C154.764 341.378 122.548 328.544 114.537 291.052C113.26 285.297 107.45 281.568 101.558 282.725C95.6909 284.024 91.9615 289.85 93.2389 295.701C103.811 344.889 145.155 361.407 162.429 366.223C173.739 369.393 186.057 371 199.049 371C239.122 371 283.284 355.086 320.2 327.342C352.955 302.876 396.412 257.591 417.401 180.807L417.485 180.505ZM99.799 278.771L99.876 278.797C105.64 280.404 111.687 277.074 113.343 271.358C115.731 263.166 126.194 235.621 160.419 225.05C218.215 207.182 269.959 224.208 318.595 277.112C320.642 279.35 323.557 280.629 326.593 280.629C329.353 280.629 331.978 279.607 333.962 277.755C336.125 275.768 337.37 273.061 337.473 270.142C337.588 267.23 336.568 264.458 334.597 262.33C280.447 203.427 219.685 183.867 154.007 204.198C109.382 217.965 95.6074 254.383 92.4557 265.204C90.7419 270.952 94.0348 277.035 99.799 278.771ZM417.048 351.775L371.66 303.449C367.552 299.096 360.645 298.89 356.268 302.992C354.143 304.992 352.923 307.699 352.846 310.605C352.763 313.518 353.815 316.295 355.812 318.417L401.181 366.731C403.235 368.904 406.13 370.151 409.121 370.151C411.933 370.151 414.584 369.097 416.567 367.194C418.692 365.194 419.911 362.487 419.995 359.574C420.085 356.655 419.032 353.884 417.036 351.775H417.048Z" fill="black"/>
</svg>
